<?xml version="1.0" encoding="UTF-8"?>
<svg width="303px" height="387px" viewBox="0 0 303 387" version="1.1" xmlns="http://www.w3.org/2000/svg" xmlns:xlink="http://www.w3.org/1999/xlink">
    <!-- Generator: Sketch 52.5 (67469) - http://www.bohemiancoding.com/sketch -->
    <title>llama</title>
    <desc>Created with Sketch.</desc>
    <g id="Page-2" stroke="none" stroke-width="1" fill="none" fill-rule="evenodd">
        <g id="llama" transform="translate(1.000000, -2.000000)">
            <path d="M279.955578,224.941086 C285.388905,224.786733 292.981193,221.366915 296.980512,211.607058 C299.576888,205.270917 300.076503,199.54391 299.137605,193.89648 C296.707805,179.28135 284.239453,173.788635 275.638741,173.93471 C267.03803,174.080785 274.00566,184.943653 279.911662,194.489758 C284.226159,201.463451 284.015144,208.173796 282.572135,215.212792 C281.671916,219.604055 276.44054,223.866431 279.955578,224.941086 Z" id="tail" fill="#F7ECE2" transform="translate(285.593878, 199.436483) rotate(-25.000000) translate(-285.593878, -199.436483) "></path>
            <path d="M212.808594,260.796875 C220.922321,251.327321 242.544922,246.771484 250.503906,257.568359 C259.53125,272.898438 257.271484,310.867208 257.271484,327.126953 C253.680504,350.726563 253.680504,364.208984 253.680504,375.262907 C253.680504,377.662041 255.55957,378.40767 253.680504,381.972656 C247.479492,384.636719 233.083191,383.636719 227.458008,382.322266 C227.458008,372.919271 232.355143,369.608398 242.149414,372.389648 C243.022402,356.508789 241.189751,341.473958 236.651462,327.285156 C228.790071,324.669271 220.842448,315.804688 212.808594,300.691406 C210.408203,293.447266 200.683594,275.261719 212.808594,260.796875 Z" id="back_leg_2" fill="#ECE0D5"></path>
            <path d="M226.167969,257.568359 C237.746094,242.349609 265.3125,246.771484 273.271484,257.568359 C277.939453,289.535156 273.271484,315.867208 273.271484,332.126953 C269.680504,355.726563 269.680504,369.208984 269.680504,380.262907 C269.680504,382.662041 271.55957,383.40767 269.680504,386.972656 C263.479492,389.636719 249.083191,388.636719 243.458008,387.322266 C243.458008,377.919271 248.355143,374.608398 258.149414,377.389648 C259.022402,361.508789 257.189751,346.473958 252.651462,332.285156 C243.205435,325.739583 235.257813,315.222005 228.808594,300.732422 C226.408203,293.488281 214.042969,272.033203 226.167969,257.568359 Z" id="back_leg_1" fill="#F7ECE2"></path>
            <path d="M74.96875,254.019531 C79.1196634,244.707031 101.53125,241.659041 108.285156,250.971541 C115.564453,267.207869 117.271484,308.867208 117.271484,325.126953 C113.680504,348.726563 113.680504,362.208984 113.680504,373.262907 C113.680504,375.662041 115.55957,376.40767 113.680504,379.972656 C107.479492,382.636719 93.0831911,381.636719 87.4580078,380.322266 C89.1370443,372.520182 94.4707031,369.167063 103.458984,370.262907 C103.080078,350.361073 100.62148,333.315755 96.0831911,319.126953 C92.6865845,315.36781 87.136893,307.992159 79.4341165,297 C76.314863,292.548705 69.6367188,268.191406 74.96875,254.019531 Z" id="front_leg_2" fill="#ECE0D5"></path>
            <path d="M88.4341165,258.552734 C92.58503,249.240234 116.983257,249.240234 123.737163,258.552734 C131.01646,274.789063 132.271484,313.867208 132.271484,330.126953 C128.680504,353.726563 128.680504,367.208984 128.680504,378.262907 C128.680504,380.662041 130.55957,381.40767 128.680504,384.972656 C122.479492,387.636719 108.083191,386.636719 102.458008,385.322266 C104.137044,377.520182 108.804036,374.167063 116.458984,375.262907 C117.000651,355.855865 115.592448,339.231771 112.234375,325.390625 C108.355469,321.202713 102.422049,313.405838 94.4341165,302 C91.288844,297.508917 83.1020853,272.724609 88.4341165,258.552734 Z" id="front_leg_1" fill="#F7ECE2"></path>
            <path d="M82.4341165,67.4980469 C89.3342953,82.8730469 88.259592,105.537926 93.1855469,131.972656 C96.0585938,147.390625 110.30957,181.167969 116.986328,188.113281 C123.663086,195.058594 84.2272403,222.3125 61.4541016,218.322266 C51.9963276,216.35254 42.0951065,168.178507 42.6533203,153.447266 C43.6769544,126.433604 46.4699299,107.787109 49,83.2128906 C55.7033666,81.0058594 62.5288048,78.21875 82.4341165,67.4980469 Z" id="neck" fill="#F7ECE2"></path>
            <path d="M66.6230469,193.267578 C78.5449219,183.433594 101.230469,186.835937 112.9375,183.433594 C124.644531,180.03125 144.355469,171.388672 163.121094,168.444687 C193.13216,163.736498 218.580087,166.604755 231.640625,168.444687 C259.344896,172.347587 279.579579,184.186402 282.354172,209.420722 C287.307349,254.468791 271.653281,279.888646 242.914063,286.318359 C217.854584,291.924819 106.042969,279.998047 74.9404297,266.742188 C56.1048491,258.714489 54.6204299,243.328526 54.3419785,242.628599 C48.1217087,226.993056 50.8891221,206.246004 66.6230469,193.267578 Z" id="body" fill="#F7ECE2"></path>
            <g id="ear_2" transform="translate(39.000000, 4.000000)">
                <path d="M10.1337652,1.19274793 C14.3932653,1.19274793 16.3996354,12.9594383 17.6894627,20.4376745 C18.97929,27.9159107 18.97929,33.2614321 17.6894627,38.1914796 C12.5836425,38.861765 8.28627039,38.2634178 4.79734624,36.3964382 C5.12641505,35.2255258 5.62661014,29.7216573 6.2979315,19.8848327 C7.30491355,5.12959574 5.87426518,1.19274793 10.1337652,1.19274793 Z" id="ear_2_outer" fill="#F7ECE2" transform="translate(11.727090, 19.824919) rotate(-15.000000) translate(-11.727090, -19.824919) "></path>
                <path d="M10.6483117,14.1306794 C10.0909156,13.9204555 10.6483117,21.6170895 10.6483117,33.7894118 C10.6483117,45.9617341 13.7807208,39.9005627 13.5639054,34.8890385 C13.5639054,19.034273 11.2057079,14.3409034 10.6483117,14.1306794 Z" id="ear_2_inner" fill="#E2D3C5" transform="translate(11.987622, 27.518729) rotate(-10.000000) translate(-11.987622, -27.518729) "></path>
            </g>
            <g id="face" transform="translate(0.000000, 36.000000)">
                <path d="M51.2927028,53.1023743 C51.1968062,53.1063904 51.0997268,53.1083984 51.0014648,53.1083984 C43.6009895,53.1083984 9.96925977,52.7919922 4.74462281,48.194087 C2.90656195,45.8782133 1.67010941,43.2917078 1.03526519,40.4345703 C0.0829988581,36.1488641 0.729011298,31.8403924 1.03526519,31.5 C-0.263027705,31.5 -1.43481509,26.4782644 4.74462281,24.2875936 C7.0729006,23.4621964 10.4714836,21.7825149 14.9403718,19.248549 C23.5192909,15.000488 32.5352581,11.3346272 41.9882733,8.25096665 C46.1270595,3.26569015 51.6500619,0 58.3413301,0 C74.0814455,0 86.8413301,12.9837423 86.8413301,29 C86.8413301,45.0162577 75.1743164,55.8359375 63.3896484,55.8359375 C59.656536,55.5666812 55.4025377,54.6425412 51.2927028,53.1023743 Z" id="face_whole" fill="#F7ECE2"></path>
                <path d="M15.5710449,19.4436035 C26.5222168,30.6499837 29.3648275,41.3968099 24.098877,51.684082 C13.3584798,50.9199219 6.99007161,49.6245117 4.99365234,47.7978516 C2.65356445,44.6257324 -0.326660156,39.6523438 1.52905273,31.4980469 C0.422607422,31.1384277 -0.644775391,28.5014648 3.10522461,25.5 C7.41984049,23.7705078 11.5751139,21.751709 15.5710449,19.4436035 Z" id="snout" stroke="#ECE0D5" fill="#ECE0D5"></path>
                <path d="M4.14844803,30.0463382 C4.50274085,29.10886 4.78705924,28.4913166 5.00140319,28.1937079 C5.73645556,27.1731148 6.5820636,26.8833141 7.31224808,26.8833141 C8.14981879,26.8833141 9.22421454,27.2860829 8.17231875,28.3607899 C7.61713169,28.9280166 6.27584145,29.4898661 4.14844803,30.0463382 Z" id="nose" stroke="#979797" fill="#979797" transform="translate(6.378622, 28.464826) rotate(5.000000) translate(-6.378622, -28.464826) "></path>
                <path d="M4.88769531,46.5986328 C4.88769531,46.5986328 18.5957031,48.5195313 23.453125,40.0097656" id="mouth" stroke="#979797" stroke-width="1.5" transform="translate(14.170410, 43.397117) rotate(5.000000) translate(-14.170410, -43.397117) "></path>
            </g>
            <g id="ear_1" transform="translate(53.000000, 0.000000)">
                <path d="M16.9635235,2.17410208 C19.6076434,2.17410208 21.7123806,8.58174154 23.2777351,21.3970205 C23.8359464,32.0877922 21.3851907,43.961395 19.4787071,51.3346847 C14.5363132,50.0408499 10.2294033,47.9060512 6.55797746,44.9302887 C8.18984943,37.541256 9.3562673,30.9345828 10.0572311,25.1102692 C11.6343995,12.0055635 12.9973436,2.17410208 16.9635235,2.17410208 Z" id="ear_1_outer" fill="#F7ECE2" transform="translate(14.958239, 26.754393) rotate(-15.000000) translate(-14.958239, -26.754393) "></path>
                <path d="M13.789216,17.9570312 C12.8806027,17.7468073 13.789216,25.4434414 13.789216,37.6157636 C13.789216,49.7880859 18.8953663,43.7269145 18.5419347,38.7153903 C18.5419347,22.8606248 14.6978293,18.1672552 13.789216,17.9570312 Z" id="ear_1_inner" fill="#E2D3C5" transform="translate(15.972429, 31.345081) rotate(-5.000000) translate(-15.972429, -31.345081) "></path>
            </g>
            <g id="eye" transform="translate(40.000000, 54.000000)" stroke="#979797" stroke-width="1.5">
                <path d="M1.87460438,0.573242188 C6.58306959,4.80957031 11.2915348,4.80957031 16,0.573242188"></path>
                <path d="M3.18652344,1.78808594 C3.18652344,1.78808594 2.29101562,2.61189779 0.5,4.25952148" id="Path"></path>
                <path d="M6.04785156,3.01904297 L4.5,6.5" id="Path-2"></path>
                <path d="M8.68347168,4 L8.68347168,7.5" id="Path-3"></path>
                <path d="M12,3 L13.5,6.5" id="Path-4"></path>
                <path d="M15,2 L16.5,4.25952148" id="Path-5"></path>
            </g>
        </g>
    </g>
</svg>